<?xml version="1.0" encoding="UTF-8" standalone="no"?>
<svg
   xmlns:dc="http://purl.org/dc/elements/1.1/"
   xmlns:cc="http://creativecommons.org/ns#"
   xmlns:rdf="http://www.w3.org/1999/02/22-rdf-syntax-ns#"
   xmlns:svg="http://www.w3.org/2000/svg"
   xmlns="http://www.w3.org/2000/svg"
   version="1.1"
   id="svg7039"
   viewBox="0 0 48 48"
   width="48"
   height="48">
  <metadata
     id="metadata7061">
    <rdf:RDF>
      <cc:Work
         rdf:about="">
        <dc:format>image/svg+xml</dc:format>
        <dc:type
           rdf:resource="http://purl.org/dc/dcmitype/StillImage" />
        <dc:title></dc:title>
      </cc:Work>
    </rdf:RDF>
  </metadata>
  <defs
     id="defs7059" />
  <g
     id="g7041"
     stroke-width="40"
     transform="matrix(.07305 0 0 .07305 -3.178 -14.438)">
    <g
       id="g7047"
       stroke="#000"
       fill="none" />
    <g
       id="g7051"
       stroke="#000"
       fill="none" />
    <path
       id="path7055"
       transform="matrix(13.689254,0,0,13.689254,43.504449,197.64545)"
       d="M 4.2617188 2 C 3.0343716 2 2 3.032419 2 4.2597656 L 2 43.738281 C 2 44.965629 3.0343716 46 4.2617188 46 L 43.738281 46 C 44.965629 46 46 44.965629 46 43.738281 L 46 4.2597656 C 46 3.032419 44.965629 2 43.738281 2 L 4.2617188 2 z M 4.921875 4.921875 L 8.8457031 4.921875 L 8.8457031 10.054688 L 4.921875 10.054688 L 4.921875 4.921875 z M 11.767578 4.921875 L 15.679688 4.921875 L 15.679688 10.054688 L 11.767578 10.054688 L 11.767578 4.921875 z M 18.601562 4.921875 L 22.515625 4.921875 L 22.515625 10.054688 L 18.601562 10.054688 L 18.601562 4.921875 z M 25.4375 4.921875 L 29.349609 4.921875 L 29.349609 10.054688 L 25.4375 10.054688 L 25.4375 4.921875 z M 32.271484 4.921875 L 36.183594 4.921875 L 36.183594 10.054688 L 32.271484 10.054688 L 32.271484 4.921875 z M 39.105469 4.921875 L 43.078125 4.921875 L 43.078125 10.054688 L 39.105469 10.054688 L 39.105469 4.921875 z M 6.3867188 11.515625 L 11.423828 11.515625 C 11.519348 12.272079 12.158679 13.312346 12.748047 13.273438 C 13.301912 11.734565 14.795242 14.263388 13.441406 13.988281 C 11.453351 13.872059 13.62893 15.29581 12.951172 16.013672 C 11.565633 16.979977 12.419753 14.468954 11.501953 14.5 C 10.818497 15.314288 10.343894 17.292307 11.679688 17.820312 C 12.947836 16.249591 14.202088 18.280119 13.083984 19.390625 C 11.737235 20.494557 12.392822 18.561854 11.789062 18.130859 C 10.646487 18.934629 12.1549 19.854202 11.810547 20.867188 C 13.552935 22.042854 10.600993 22.216534 11.3125 23.638672 C 11.862128 23.622452 12.811416 23.194882 12.751953 22.474609 C 14.206598 22.040985 15.263604 20.22075 13.808594 19.125 C 13.266563 18.244967 15.335861 17.478605 14.044922 16.59375 C 12.853038 15.179648 14.821719 14.936216 15.597656 14.355469 C 14.151335 13.929434 15.110321 12.452094 14.5625 11.515625 L 15.636719 11.515625 C 15.749762 11.576565 15.884222 11.638039 16.111328 11.699219 L 16.474609 11.755859 L 16.703125 11.753906 C 16.752495 11.664896 16.779199 11.586944 16.792969 11.515625 L 19.154297 11.515625 C 19.386982 11.771727 19.854124 12.059192 20.199219 12.220703 C 20.105639 12.917965 19.195546 13.760519 20.017578 14.603516 C 21.240435 15.379453 20.521246 13.410826 20.96875 12.978516 C 20.8936 12.603198 20.868442 11.973736 20.693359 11.515625 L 26.314453 11.515625 C 26.259383 11.646074 26.231919 11.793584 26.287109 11.976562 C 26.488581 12.215948 26.8341 12.010732 26.970703 11.822266 C 27.117847 11.704347 27.201187 11.606769 27.271484 11.515625 L 28.576172 11.515625 C 29.106528 12.002912 30.11474 12.736463 29.697266 13.355469 C 29.063776 13.552192 27.073595 13.628467 28.859375 14.59375 C 29.813189 13.518381 30.262595 14.65963 30.855469 15.388672 C 32.988821 15.974679 31.969875 13.917508 33.464844 13.556641 C 33.978263 13.213225 35.412832 12.156555 35.59375 11.515625 L 36.638672 11.515625 C 36.553692 11.822706 36.471072 12.169278 36.152344 12.402344 C 34.478768 14.02157 39.19075 13.635213 37.78125 11.949219 C 37.79776 11.748068 37.832611 11.626936 37.869141 11.515625 L 38.431641 11.515625 C 38.812813 12.003952 39.215583 13.039281 39.222656 13.453125 C 40.10773 15.262354 37.108752 13.329431 38.078125 15.125 C 37.846922 17.243158 35.862828 15.358094 34.744141 16.068359 C 35.214656 16.675916 35.402131 18.518374 36.611328 18.273438 C 36.771088 17.266223 38.614838 15.752375 39.123047 17.082031 C 38.309124 17.27912 37.959065 17.749842 37.794922 18.626953 C 37.032937 18.583483 36.392424 19.127791 37.447266 19.539062 L 37.816406 19.644531 L 38.148438 19.681641 C 40.003031 19.731091 38.759949 17.477906 40.166016 16.976562 C 41.063946 15.401678 38.829851 16.549759 38.845703 15.511719 C 39.665982 15.04734 42.480835 15.533289 41.367188 13.580078 C 40.136659 14.167985 40.003049 12.740682 40.558594 11.945312 C 40.882559 11.955953 41.345231 11.742989 41.570312 11.515625 L 43.078125 11.515625 L 43.078125 12.308594 C 42.952395 12.313694 42.817138 12.484293 42.730469 12.960938 L 42.681641 13.367188 C 42.846173 13.398478 42.976119 13.389409 43.078125 13.355469 L 43.078125 17.369141 C 43.057005 17.411981 43.029229 17.439711 43.011719 17.490234 C 42.248346 19.312101 41.867672 15.354045 41.439453 17.021484 C 40.88756 18.534277 43.416433 19.525174 42.164062 21.076172 C 41.099724 20.484759 40.164046 22.050881 41.457031 22.441406 L 41.679688 22.486328 C 42.47359 22.183656 42.625353 21.190016 43.078125 20.488281 L 43.078125 24.951172 C 42.784379 25.071747 42.57879 25.296806 42.716797 25.669922 C 42.811767 25.792071 42.939605 25.827438 43.078125 25.835938 L 43.078125 30.205078 C 42.651031 29.93885 41.615059 29.944857 42.941406 30.722656 C 42.998806 30.694916 43.037916 30.667865 43.078125 30.640625 L 43.078125 34.449219 C 42.873814 34.663746 42.788451 34.965953 43.060547 35.328125 C 42.335526 36.20173 41.315959 34.562423 42.705078 34.347656 C 41.555417 32.673935 40.721823 35.600813 39.560547 35.789062 L 39.472656 35.966797 C 39.713677 36.205664 40.002324 36.367959 40.318359 36.482422 L 36.919922 36.482422 C 37.608406 34.47268 33.958965 34.152625 35.365234 32.335938 C 34.872877 31.38541 34.375486 33.224632 33.539062 33.326172 C 34.78274 33.678419 35.604147 35.175012 34.285156 36.144531 C 34.142244 36.274414 34.109178 36.385948 34.123047 36.482422 L 35.253906 36.482422 C 35.437675 35.132064 35.758674 35.98411 36.162109 36.482422 L 35.253906 36.482422 C 35.253906 36.482422 35.253906 36.484375 35.253906 36.484375 L 34.123047 36.482422 L 31.8125 36.482422 C 31.8147 36.480322 31.840304 36.463271 31.839844 36.462891 C 32.880168 35.838296 31.76096 35.688286 31.558594 36.482422 L 23.224609 36.482422 C 23.535209 36.202657 23.526304 35.844831 22.859375 35.476562 C 21.859629 35.232795 21.922166 35.956917 21.824219 36.482422 L 21.101562 36.482422 C 21.210405 35.853988 21.555785 35.131487 20.517578 34.941406 C 20.469368 33.735789 19.506515 33.28657 18.289062 34.195312 C 17.099516 33.849055 17.283634 35.228431 16.333984 35.289062 C 15.415235 34.106456 14.251423 35.579963 12.955078 35.072266 C 11.883142 33.817778 14.489934 34.774761 14.839844 33.978516 C 16.056491 34.226666 15.433681 33.202803 14.919922 32.820312 C 14.328363 31.383492 13.520797 33.282734 12.804688 33.085938 C 11.300003 31.239233 14.583377 31.667001 14.816406 30.185547 C 15.819383 29.254817 14.513096 29.359613 13.867188 29.580078 C 12.224511 29.350477 13.495617 28.412402 13.5 27.595703 C 12.006639 27.983891 11.942987 25.778589 10.511719 26.251953 C 10.424939 27.614409 9.3585142 28.045056 8.734375 29.033203 C 8.2164505 30.25511 5.5314493 30.596802 6.4980469 32.109375 C 7.3468879 31.207573 8.310369 30.018808 9.8203125 30.634766 C 10.344081 31.710865 12.609245 32.892316 11.910156 34.017578 C 10.679483 33.337117 10.779228 34.40901 10.251953 35.068359 C 9.5665251 35.53398 8.9027633 35.325988 8.2734375 34.884766 C 6.9447848 34.196896 7.4892911 35.742547 7.3691406 36.482422 L 4.921875 36.482422 L 4.921875 35.554688 C 5.278771 35.301041 5.8794429 35.327278 6.1835938 34.794922 C 7.1816759 33.642193 5.6167879 32.867702 5.2792969 34.34375 C 5.1439292 34.672628 5.0272487 34.831314 4.921875 34.919922 L 4.921875 31.1875 L 4.921875 26.986328 C 5.5585202 26.320594 5.5033249 24.14106 6.8710938 24.828125 C 6.8404126 23.329723 8.3144487 24.215259 9.1386719 23.816406 C 10.570598 24.220811 10.433695 21.658498 9.1171875 22.837891 C 7.0500917 24.259882 7.9268359 20.718138 6.3789062 20.773438 C 7.1660424 21.896774 5.7025711 22.252107 4.921875 21.90625 L 4.921875 19.554688 C 5.186259 19.955704 5.5978591 20.171449 6.1816406 19.857422 C 7.2087967 19.611536 6.9424242 18.081162 8.2480469 18.474609 C 10.257287 18.647519 6.8432337 19.906542 8.4472656 20.388672 C 9.7908012 20.219488 8.7182655 21.205655 8.8496094 21.703125 C 9.1781152 21.822489 9.4926717 21.628735 9.8066406 21.564453 C 12.070533 22.184063 10.895793 20.326695 9.7050781 19.708984 C 10.756414 18.334183 8.8952618 18.36377 8.8945312 17.296875 C 10.396439 16.63285 7.9094414 15.021653 7.4707031 16.236328 C 7.5031459 17.580742 5.812862 16.803529 4.921875 17.416016 L 4.921875 11.712891 C 5.1133709 12.164434 5.3851284 12.719467 5.1972656 13.144531 C 5.6106544 13.262463 6.2848869 12.22736 6.3867188 11.515625 z M 30.935547 11.515625 L 32.972656 11.515625 C 32.873416 12.144196 33.034546 13.128807 32.21875 13.304688 C 31.180198 14.896082 30.015821 12.614954 30.841797 11.775391 C 30.897587 11.675901 30.923477 11.592105 30.935547 11.515625 z M 7.5175781 11.642578 C 7.0687589 11.587298 6.7121712 11.781676 7.4316406 12.287109 C 7.6605793 12.388649 7.9017784 12.509497 8.1601562 12.5 C 8.507363 12.003844 7.9663973 11.697859 7.5175781 11.642578 z M 25.193359 11.810547 C 24.429114 11.716837 24.285699 13.831778 23.619141 14.419922 C 22.323891 14.648422 21.818089 16.155919 22.958984 16.865234 C 24.714084 17.47396 24.442712 13.843765 26.386719 14.777344 C 28.072567 14.902844 27.10723 13.614673 26.199219 13.271484 C 25.267685 13.212894 24.216838 12.720123 25.355469 11.859375 C 25.298659 11.832375 25.244309 11.816797 25.193359 11.810547 z M 17.179688 12.1875 C 16.793547 12.293015 16.389285 13.444507 16.349609 13.996094 C 17.578603 14.916232 15.650124 17.243564 17.822266 17.488281 C 17.988381 17.843743 18.327356 17.691069 18.517578 17.517578 C 17.788393 16.748724 16.864826 14.73509 18.621094 14.46875 C 17.718342 14.468239 16.778681 14.023415 17.658203 12.845703 C 17.525777 12.307507 17.355206 12.139539 17.179688 12.1875 z M 9.7148438 12.246094 C 9.6670542 12.238038 9.6216204 12.238568 9.5800781 12.25 C 9.4266914 12.29221 9.3217425 12.478557 9.3183594 12.884766 C 9.0919774 14.659735 6.303973 13.166157 5.3457031 13.916016 C 5.8322892 14.81307 5.305937 15.513525 5.5117188 16.404297 L 5.6621094 16.550781 L 5.7910156 16.611328 C 6.3025848 15.661459 6.6261525 14.616657 7.9921875 14.65625 C 9.3382799 15.3671 9.2702923 13.48885 10.208984 13.482422 C 11.737013 14.506931 10.431687 12.366935 9.7148438 12.246094 z M 42.480469 14.705078 C 42.406231 14.693498 42.32903 14.694788 42.253906 14.712891 C 42.053577 14.761161 41.865172 14.928708 41.769531 15.287109 C 41.582523 15.61693 42.060166 15.630898 42.203125 15.552734 C 43.393548 15.501582 43.000136 14.786142 42.480469 14.705078 z M 29.402344 15.798828 C 29.204964 15.841738 29.067287 16.066627 29.021484 16.617188 C 30.100214 17.063815 29.246312 18.959996 30.916016 18.462891 C 32.821087 19.089221 29.609858 19.675611 30.554688 20.910156 C 30.010464 22.121106 30.631947 23.122354 31.648438 23.861328 C 31.838002 24.007793 32.117184 24.140707 32.347656 23.976562 C 34.054689 23.371635 32.059336 22.660547 31.367188 22.679688 C 30.264643 21.324828 32.475802 21.151856 31.908203 19.806641 C 32.143862 18.167618 33.046613 20.556471 33.763672 20.640625 C 35.301447 21.330363 33.233043 19.739227 34.304688 19.263672 C 35.179315 19.956916 36.296084 18.248031 34.974609 18.390625 C 33.942559 19.267152 32.180757 18.735775 31.751953 17.523438 C 32.964364 17.655293 33.757694 15.797421 32.033203 16.357422 C 31.1354 17.170578 29.994484 15.670108 29.402344 15.798828 z M 21.140625 15.996094 C 21.042883 15.983119 20.945805 15.985907 20.853516 16.003906 C 20.238251 16.123904 19.805241 16.887678 20.386719 17.681641 C 20.470289 18.683375 23.277856 17.014233 21.978516 16.615234 C 21.738217 16.221997 21.433851 16.035018 21.140625 15.996094 z M 27.740234 16.511719 C 27.63481 16.553959 27.62845 16.752798 27.851562 17.224609 C 29.265245 17.668388 28.056509 16.385006 27.740234 16.511719 z M 25.501953 16.869141 C 25.930903 17.529074 25.119467 18.525071 25.716797 18.951172 L 25.71875 18.951172 C 27.275372 19.380268 26.24867 16.788786 25.501953 16.869141 z M 28.462891 18.203125 C 27.850126 18.09933 27.255321 19.453608 28.447266 19.804688 L 28.449219 19.804688 C 28.938994 20.112577 29.140749 19.205053 29.015625 18.884766 C 28.873269 18.434705 28.667254 18.237742 28.462891 18.203125 z M 17.513672 18.300781 C 17.063702 18.324971 16.718735 19.341573 16.564453 19.759766 C 15.360151 19.474725 15.299712 20.541315 15.728516 21.453125 C 16.251115 21.949134 16.303802 20.835722 16.617188 20.642578 C 18.385947 21.085699 16.963313 19.302792 17.996094 18.666016 C 17.825668 18.394671 17.663662 18.292719 17.513672 18.300781 z M 19.513672 18.521484 C 19.326846 18.501484 19.066864 18.576344 18.730469 18.791016 C 18.211741 19.375343 18.753519 20.795314 18.029297 21.59375 C 18.644013 22.26676 17.272937 23.372647 18.289062 23.628906 C 19.945253 24.267144 18.376572 22.211341 19.529297 21.947266 C 21.222669 21.204712 17.996347 21.283727 19.298828 20.072266 C 19.974358 19.497928 20.074148 18.58147 19.513672 18.521484 z M 24.560547 18.619141 C 24.382533 18.652511 24.259832 18.931085 24.347656 19.578125 C 23.304137 20.943868 24.047672 18.562792 22.949219 18.748047 C 20.975627 19.28511 23.297228 20.580205 24.025391 21.101562 C 25.03443 20.915139 25.71253 24.176651 24.591797 22.929688 C 23.763848 21.522963 23.557514 23.313011 22.785156 23.498047 C 20.97695 22.739057 23.611998 22.432479 23.03125 21.470703 C 22.395788 21.388883 20.610498 20.646718 20.40625 21.580078 C 21.718885 22.142855 21.50704 23.066894 21.630859 24.263672 C 20.38638 26.261224 23.444389 25.830946 23.947266 27.255859 C 25.113436 27.594081 23.57012 26.026418 23.775391 25.535156 C 23.409775 25.355599 21.920194 24.571789 23.220703 24.576172 C 24.575123 25.646574 24.792503 23.795007 25.552734 23.474609 C 27.156036 23.287674 26.155004 25.117209 27.277344 25.367188 C 28.95837 24.258507 26.591405 23.292597 26.275391 22.121094 C 25.39543 21.48702 25.081339 20.999824 25.189453 19.912109 C 25.307429 19.187316 24.857237 18.563522 24.560547 18.619141 z M 40.589844 19.324219 C 40.370611 19.375209 40.27119 19.624721 40.646484 20.154297 C 40.701494 20.266063 40.891482 20.50539 41.041016 20.345703 C 41.653449 19.70437 40.955236 19.239236 40.589844 19.324219 z M 26.773438 19.539062 C 26.677527 19.561053 26.574832 19.611322 26.460938 19.701172 C 25.549126 21.198112 27.570223 20.225654 27.898438 21.179688 C 28.539743 21.558817 28.714953 20.39124 28.570312 19.994141 C 27.741734 20.65359 27.444842 19.385161 26.773438 19.539062 z M 36.613281 20.423828 C 36.535751 20.429128 36.438857 20.475808 36.314453 20.578125 C 34.690698 21.367942 36.407813 22.002964 37.337891 22.099609 C 38.61159 21.995951 38.790978 23.942468 37.458984 23.417969 C 35.811488 23.254118 37.191575 25.350601 37.701172 26.005859 C 38.107257 26.464833 38.675535 25.900383 38.396484 25.433594 C 37.489861 24.973744 37.350131 23.649295 38.662109 24.169922 C 39.911118 23.205004 39.288195 21.802166 37.9375 21.548828 C 36.736339 22.378493 37.156005 20.38664 36.613281 20.423828 z M 39.011719 20.4375 C 38.73159 20.45827 38.600096 20.631695 39.083984 21.046875 L 39.318359 21.148438 L 39.464844 21.191406 C 40.354907 20.792227 39.478599 20.402887 39.011719 20.4375 z M 32.863281 21.458984 C 32.560607 21.474804 32.379182 21.693718 32.746094 22.263672 L 33.054688 22.380859 L 33.386719 22.369141 C 34.205655 21.967868 33.367739 21.432624 32.863281 21.458984 z M 28.775391 21.630859 C 28.306209 21.591759 27.810079 21.920656 28.425781 22.691406 C 28.562969 22.802661 28.802911 22.938272 28.962891 22.769531 C 29.686122 22.075556 29.244573 21.669964 28.775391 21.630859 z M 14.832031 22.519531 C 14.376966 22.591761 14.045792 22.969676 14.876953 23.498047 C 15.094058 23.614927 15.371236 23.574187 15.527344 23.376953 C 15.865565 22.681663 15.287094 22.447303 14.832031 22.519531 z M 5.8945312 23.070312 C 6.4608118 23.026811 6.8819735 23.250903 6.21875 23.931641 C 4.943297 23.749819 4.7461086 24.698257 5.3085938 25.650391 C 5.2249287 25.852282 5.0827725 25.968366 4.921875 26.048828 L 4.921875 23.396484 C 5.1621327 23.21922 5.5547629 23.096413 5.8945312 23.070312 z M 42.097656 23.199219 C 41.73035 23.209819 41.129285 23.810507 41.435547 24.224609 C 41.737682 24.522799 42.084719 24.279129 42.261719 23.984375 C 42.454215 23.39856 42.318039 23.19286 42.097656 23.199219 z M 34.568359 23.21875 C 34.258105 23.18017 34.032511 23.3106 34.326172 23.775391 L 34.566406 23.986328 L 34.798828 24.050781 C 35.836458 23.814921 35.08545 23.28305 34.568359 23.21875 z M 29.556641 23.603516 C 29.300431 23.574656 29.029119 23.708898 29.019531 24.179688 L 29.185547 24.263672 L 29.439453 24.287109 C 30.370064 24.151236 29.983657 23.651606 29.556641 23.603516 z M 13.5625 23.712891 C 13.04011 23.683501 11.989911 24.694306 13.0625 25.246094 C 11.984574 26.316861 13.317321 27.262676 14.462891 26.689453 C 14.349079 27.415059 14.918806 28.24661 15.515625 27.199219 C 17.085031 26.837767 16.241399 28.171698 16.544922 28.939453 C 17.216763 30.099049 17.725986 28.251361 17.005859 27.748047 C 18.462111 27.066198 19.098509 25.533219 20.480469 24.722656 C 20.59954 23.070119 18.616327 24.441592 17.806641 24.71875 C 17.389452 24.546352 16.78075 23.237388 16.349609 24.494141 C 15.953094 25.156631 13.18334 25.978749 13.699219 24.537109 C 13.928116 23.953805 13.79995 23.72626 13.5625 23.712891 z M 31.265625 24.958984 C 30.457294 24.869014 29.187634 25.607649 28.433594 25.740234 C 26.572207 25.830304 28.494604 27.481446 29.226562 26.275391 C 31.337562 25.22632 31.173709 27.709614 31.787109 29.025391 C 32.433894 29.808633 32.719585 27.980138 32.025391 27.761719 C 32.831351 26.878033 30.960683 26.245425 31.884766 25.378906 C 31.754371 25.111817 31.535069 24.988975 31.265625 24.958984 z M 35.566406 24.976562 C 33.792095 25.474034 36.339774 25.996735 35.582031 26.880859 C 34.663062 26.847619 34.352977 28.17319 35.373047 28.208984 C 37.104478 27.110458 34.503728 29.478277 35.939453 29.740234 C 37.624644 28.995636 36.253075 30.755944 36.865234 31.289062 C 37.555046 31.637366 38.236798 30.304384 37.765625 29.734375 C 38.585757 28.182282 36.09012 28.246249 36.714844 26.746094 C 35.941536 26.399837 36.379312 24.909722 35.566406 24.976562 z M 8.46875 25.154297 C 7.8417563 25.138307 6.7629987 25.726071 7.7773438 26.130859 C 8.0460217 26.158109 8.3504551 26.244606 8.5605469 26.003906 C 9.0577434 25.390971 8.8449463 25.163889 8.46875 25.154297 z M 16.839844 25.181641 C 17.163474 25.244091 17.461109 25.670923 17.224609 26.380859 C 16.959146 26.568525 16.405004 26.575895 16.302734 26.173828 C 16.166898 25.421851 16.516214 25.119192 16.839844 25.181641 z M 40.289062 25.355469 C 39.867814 25.311789 39.548172 25.54782 39.658203 26.304688 C 40.409084 27.552381 38.388903 28.181763 39.589844 29.267578 C 40.149041 29.500462 40.585222 28.879079 41.074219 28.712891 C 40.117994 28.486655 39.704151 27.122401 41.105469 27.136719 C 42.641856 26.901781 41.215809 25.451556 40.289062 25.355469 z M 25.246094 25.371094 C 24.899059 25.479844 25.178094 26.738837 25.597656 27.09375 C 24.779569 27.987371 25.79802 28.172105 26.4375 28.630859 C 26.844973 29.685336 29.701438 29.27346 28.679688 30.488281 C 27.422861 29.703286 26.788493 31.498923 27.128906 32.5 C 28.420942 33.025668 27.970718 31.474371 28.607422 31.105469 C 29.954172 32.337238 31.073124 29.341297 29.626953 29.244141 C 29.266305 27.73858 27.657061 29.592167 27.455078 28.0625 C 27.375018 26.850893 26.677921 26.366027 25.820312 25.720703 C 25.547964 25.425271 25.361772 25.334844 25.246094 25.371094 z M 20.632812 26.052734 C 20.083522 26.120616 19.440272 26.665935 20.177734 27.289062 C 20.4375 27.373583 20.867157 27.466743 20.966797 27.09375 C 21.38888 26.40992 21.195212 26.107118 20.857422 26.054688 C 20.787049 26.043765 20.711283 26.043037 20.632812 26.052734 z M 33.900391 26.28125 C 33.38134 26.1978 32.552693 26.636397 32.896484 27.326172 C 33.244495 27.825688 33.816628 27.197885 34.179688 27.052734 C 34.411466 26.568468 34.211818 26.33132 33.900391 26.28125 z M 7.5234375 26.583984 C 6.9507506 26.590384 6.4899829 27.645124 7.4453125 27.701172 C 8.4458784 28.395074 9.9185428 26.967673 8.0859375 27.003906 C 7.9185252 26.697407 7.7143331 26.581841 7.5234375 26.583984 z M 19.189453 27.384766 C 18.208348 27.443566 17.418399 29.313812 18.509766 29.986328 C 19.879453 30.075738 19.460864 28.16013 19.386719 27.398438 C 19.320109 27.385367 19.25486 27.380846 19.189453 27.384766 z M 10.96875 27.755859 C 11.221714 27.736569 11.49428 28.087047 11.599609 29.1875 C 9.9534874 29.628599 10.412229 27.798291 10.96875 27.755859 z M 42.300781 28.742188 C 42.049164 28.772818 41.860376 28.949661 42.085938 29.330078 L 42.269531 29.470703 L 42.449219 29.509766 C 43.313218 29.042794 42.720144 28.691139 42.300781 28.742188 z M 23.404297 28.769531 C 24.026391 30.434122 20.540242 30.035882 21.740234 31.416016 C 22.170353 33.051605 23.924804 31.770024 24.425781 30.84375 C 24.021084 30.042684 24.774198 29.134419 25.378906 30.134766 C 25.216589 30.957528 24.917988 32.345803 24.916016 32.884766 C 24.078205 32.43507 23.399999 32.976926 22.638672 33.310547 C 22.218854 32.200698 21.032127 32.209846 20.214844 31.498047 C 19.491137 30.391339 18.393889 31.285517 18.882812 32.294922 C 20.214807 32.094765 20.793599 33.090174 21.626953 33.791016 C 22.346496 33.724976 22.769862 33.538262 22.802734 34.644531 C 23.753626 34.951926 25.318671 33.579354 25.539062 35.457031 C 26.257437 35.603277 26.740699 34.790192 27.613281 35.349609 C 27.447166 34.643581 25.302622 34.761843 26.568359 33.509766 C 25.850132 32.881828 26.213394 31.787075 26.117188 30.744141 C 26.889764 28.878882 24.512465 29.048582 23.404297 28.769531 z M 11.253906 29.896484 C 11.401238 29.886144 11.625287 30.151156 11.929688 30.929688 C 11.063222 32.430317 10.811912 29.927508 11.253906 29.896484 z M 35.140625 30.140625 C 34.909569 30.151965 34.749062 30.287348 35.003906 30.619141 L 35.289062 30.765625 C 36.106402 30.445575 35.525719 30.12172 35.140625 30.140625 z M 31.642578 30.205078 C 31.431437 30.156498 31.207343 30.333192 31.019531 30.904297 C 29.691628 31.620625 30.688529 32.541415 30.96875 33.546875 C 29.662543 34.880768 31.804803 33.93229 32.052734 34.875 C 34.864794 35.893609 31.581807 32.331201 33.630859 32.238281 C 35.130138 31.589889 33.071605 30.678295 32.375 31.541016 C 32.31145 30.991771 31.99448 30.286054 31.642578 30.205078 z M 39.601562 30.369141 C 38.987916 30.411261 38.463511 31.151636 39.482422 31.810547 C 39.952279 32.183686 40.563961 31.790477 40.488281 31.214844 C 40.370159 30.569173 39.969751 30.343871 39.601562 30.369141 z M 15.810547 31.181641 C 15.601535 31.156081 15.455628 31.403659 15.609375 32.216797 C 17.038037 32.617668 16.270373 31.237875 15.810547 31.181641 z M 42.09375 31.619141 C 41.360597 31.702691 40.77847 32.569777 41.753906 32.841797 C 42.475202 33.66266 43.537625 32.117211 42.824219 31.847656 C 42.59791 31.650056 42.338134 31.591291 42.09375 31.619141 z M 38.320312 31.964844 C 37.982339 31.964197 37.724755 32.162322 38.041016 32.710938 L 38.224609 32.847656 L 38.380859 32.904297 C 39.669416 32.51736 38.883606 31.96592 38.320312 31.964844 z M 9.3300781 32.511719 C 8.7675931 32.413099 7.0804585 32.839097 7.4570312 33.798828 C 8.2605814 34.097603 10.747979 33.898938 9.3300781 32.511719 z M 28.923828 32.767578 C 28.650901 32.836438 28.489927 34.444217 28.410156 34.851562 C 29.230508 35.689082 28.899806 33.61931 29.234375 33.3125 C 29.116856 32.891823 29.014804 32.744624 28.923828 32.767578 z M 18.503906 34.65625 C 19.360815 34.709859 20.320578 35.389194 20.115234 36.404297 C 20.119934 36.433617 20.137724 36.455382 20.146484 36.482422 L 12.208984 36.482422 C 12.246974 36.424112 12.276316 36.354983 12.285156 36.263672 C 13.254749 34.816186 15.341827 35.92317 16.652344 36.369141 C 17.93817 36.882755 16.80341 35.112712 17.728516 34.822266 C 17.94447 34.690502 18.21827 34.63838 18.503906 34.65625 z M 38.140625 34.730469 C 38.03238 34.750989 37.979286 34.889412 38.076172 35.240234 C 39.289715 35.674699 38.465364 34.668901 38.140625 34.730469 z M 30.115234 35.292969 C 29.853298 35.263989 29.683855 35.493924 30.066406 36.267578 C 31.245068 36.107781 30.551792 35.341272 30.115234 35.292969 z M 11.615234 36.007812 C 11.679994 36.012413 11.770792 36.072512 11.878906 36.238281 C 11.451783 36.492934 11.420944 35.994146 11.615234 36.007812 z M 8.5175781 36.076172 C 8.7069776 36.080534 8.8921869 36.167103 9.0722656 36.392578 C 9.4263126 36.223562 10.000848 36.349372 10.566406 36.482422 L 7.5429688 36.482422 C 7.8749236 36.290577 8.2019124 36.068902 8.5175781 36.076172 z M 4.921875 37.943359 L 8.8457031 37.943359 L 8.8457031 43.078125 L 4.921875 43.078125 L 4.921875 37.943359 z M 11.767578 37.943359 L 15.679688 37.943359 L 15.679688 43.078125 L 11.767578 43.078125 L 11.767578 37.943359 z M 18.601562 37.943359 L 22.515625 37.943359 L 22.515625 43.078125 L 18.601562 43.078125 L 18.601562 37.943359 z M 25.4375 37.943359 L 29.349609 37.943359 L 29.349609 43.078125 L 25.4375 43.078125 L 25.4375 37.943359 z M 32.271484 37.943359 L 36.183594 37.943359 L 36.183594 43.078125 L 32.271484 43.078125 L 32.271484 37.943359 z M 39.105469 37.943359 L 43.078125 37.943359 L 43.078125 43.078125 L 39.105469 43.078125 L 39.105469 37.943359 z " />
  </g>
</svg>
