/* XPM */
static char *LightZone_32[] = {
/* columns rows colors chars-per-pixel */
"32 32 118 2 ",
"   c #161005",
".  c #1A1408",
"X  c #2A1E09",
"o  c #4B3812",
"O  c #594215",
"+  c #58451F",
"@  c #6B511E",
"#  c #664F21",
"$  c #735928",
"%  c #7A5F2C",
"&  c #796235",
"*  c #7A6438",
"=  c #8F6A22",
"-  c #9F7A32",
";  c #A37A29",
":  c #A97E28",
">  c #A07F3C",
",  c #8D7442",
"<  c #8C7649",
"1  c #8E784E",
"2  c #977E4C",
"3  c #987E4D",
"4  c #B0832B",
"5  c #B5882F",
"6  c #A68137",
"7  c #A0803E",
"8  c #A8833B",
"9  c #B58A33",
"0  c #BA8D34",
"q  c #B98E39",
"w  c #BC923C",
"e  c #C09338",
"r  c #C4983F",
"t  c #BE9440",
"y  c #A6926A",
"u  c #C09642",
"i  c #C49A45",
"p  c #C59C4A",
"a  c #C99E49",
"s  c #C29D51",
"d  c #CFA147",
"f  c #CBA14E",
"g  c #D4A84E",
"h  c #D9AB4D",
"j  c #CDA453",
"k  c #D0A753",
"l  c #D1A855",
"z  c #DAAC53",
"x  c #D3AB5C",
"c  c #D6AF61",
"v  c #D7B162",
"b  c #DBB466",
"n  c #DCB669",
"m  c #DDB96F",
"M  c #DEBB73",
"N  c #D1B57B",
"B  c #E1BB6D",
"V  c #E3BE73",
"C  c #E5C076",
"Z  c #E8C276",
"A  c #E5C27A",
"S  c #EAC67C",
"D  c #EEC87E",
"F  c #AFA48F",
"G  c #B2A997",
"H  c #B5AC99",
"J  c #D1B781",
"K  c #C3B69A",
"L  c #DFC183",
"P  c #D8C194",
"I  c #D8C399",
"U  c #E7C581",
"Y  c #E9C681",
"T  c #EDCA84",
"R  c #EECD8A",
"E  c #F1CD85",
"W  c #F2CF89",
"Q  c #F5D28C",
"!  c #F9D68E",
"~  c #F3D393",
"^  c #F9D792",
"/  c #FDDA95",
"(  c #F3D69C",
")  c #F5D89D",
"_  c #FEDD9B",
"`  c #D5C8AD",
"'  c #DACBAD",
"]  c #DACEB7",
"[  c #E0CEA6",
"{  c #E2CFAB",
"}  c #F4D9A3",
"|  c #FDDFA4",
" . c #F3DBAC",
".. c #F4DEB3",
"X. c #FFE1A4",
"o. c #FEE3AC",
"O. c #F7E1B4",
"+. c #FEE5B4",
"@. c #F5E2BB",
"#. c #FCE6BB",
"$. c #FFE9BC",
"%. c #F5E5C3",
"&. c #FAE7C3",
"*. c #FEEAC3",
"=. c #F5E6C9",
"-. c #F7EACF",
";. c #FDEDCC",
":. c #F5E9D3",
">. c #FAEED4",
",. c #F9EFDB",
"<. c #FFF1D5",
"1. c #FDF2DC",
"2. c #FEF5E2",
"3. c #FFF8E7",
"4. c #FFF9ED",
"5. c #FFFCF6",
"6. c #FFFCF8",
"7. c None",
/* pixels */
"7.7.7.7.7.7.7.7.7.7.7.7.7.7.7.H H 7.7.7.7.7.7.7.7.7.7.7.7.7.7.7.",
"7.7.7.7.7.7.7.7.7.7.7.7.G :.1.,.1.<.=.F 7.7.7.7.7.7.7.7.7.7.7.7.",
"7.7.7.7.7.7.7.7.7.7.7.] 1.,.2.,.,.>.:.;.` 7.7.7.7.7.7.7.7.7.7.7.",
"7.7.7.7.7.7.7.7.7.7.] ,.,.2.4.3.2.1.>.=.&.' 7.7.7.7.7.7.7.7.7.7.",
"7.7.7.7.7.7.7.7.7.K <.>.1.4.5.5.4.2.1.;.%.&.K 7.7.7.7.7.7.7.7.7.",
"7.7.7.7.7.7.7.7.7.*.&.>.2.4.5.5.4.2.<.;.&.@.#.7.7.7.7.7.7.7.7.7.",
"7.7.7.7.7.7.7.7.{ @.&.<.1.4.4.4.2.1.<.;.*.@.@.[ 7.7.7.7.7.7.7.7.",
"7.7.7.7.7.7.7.7.O.@.&.<.<.1.2.3.1.1.<.;.*.#.O.O.7.7.7.7.7.7.7.7.",
"7.7.7.7.7.7.7.I ..O.#.;.<.<.<.<.<.<.;.*.*.#.O. .I 7.7.7.7.7.7.7.",
"7.7.7.7.7.7.7.}  .O.#.$.*.;.;.;.;.;.*.$.#.+. .} ( 7.7.7.7.7.7.7.",
"7.7.7.7.7.7.y ( } o.+.$.$.$.*.*.$.$.$.$.+.+.o.} ( y 7.7.7.7.7.7.",
"7.7.7.7.7.7.J ( } o.+.+.$.$.$.$.$.$.$.+.+.o.X.) ~ N 7.7.7.7.7.7.",
"7.7.7.7.7.7.L ( ) X.X.o.+.+.+.$.$.+.+.o.X.X.X.^ Q J 7.7.7.7.7.7.",
"7.7.7.7.7.7.U R ^ _ X.o.o.o.o.o.o.o.o.X.X.X./ ! E Y 7.7.7.7.7.7.",
"7.7.7.7.7.7.U T Q / _ _ X.X.X.X.X._ X._ / / ^ W T S 7.7.7.7.7.7.",
"7.7.7.7.7.1 A U R Q ^ / / _ _ _ _ _ _ _ / ! Q E A V < 7.7.7.7.7.",
"7.7.7.7.7.3 M V T E W Q ! ! ^ ^ / ! ! ! Q D E S C B 2 7.7.7.7.7.",
"7.7.7.7.7.3 M N C D D E E W W W W E W D D D D Z B n 2 7.7.7.7.7.",
"7.7.7.7.7.< m m M C S A S S S S S S D S Z Z C B b v , 7.7.7.7.7.",
"7.7.7.7.7.* v c n B B V V V C C C C C B C B n b c c & 7.7.7.7.7.",
"7.7.7.7.7.7.x x c b n n n n n n b n n b b b v x l x 7.7.7.7.7.7.",
"7.7.7.7.7.7.s j l x c x c c c v v v c c v v x k j s 7.7.7.7.7.7.",
"7.7.7.7.7.7.> j j j x l x l l l k l l l g k j f f 7 7.7.7.7.7.7.",
"7.7.7.7.7.7.7.p p j j l l j j f f f f f f a p p f 7.7.7.7.7.7.7.",
"7.7.7.7.7.7.7.8 p f j l l g j p p p p a p i u i 6 7.7.7.7.7.7.7.",
"7.7.7.7.7.7.7.7.d f j l k k d i r u t t w w w w 7.7.7.7.7.7.7.7.",
"7.7.7.7.7.7.7.7.$ g l l k f a i w w q q q q e @ 7.7.7.7.7.7.7.7.",
"7.7.7.7.7.7.7.7.7.% z z g a u w 0 9 0 9 0 0 @ 7.7.7.7.7.7.7.7.7.",
"7.7.7.7.7.7.7.7.7.7.+ u h d r w 9 5 5 0 ; o 7.7.7.7.7.7.7.7.7.7.",
"7.7.7.7.7.7.7.7.7.7.7.. # - 9 9 4 4 = O   7.7.7.7.7.7.7.7.7.7.7.",
"7.7.7.7.7.7.7.7.7.7.7.7.7.7.7.X X 7.7.7.7.7.7.7.7.7.7.7.7.7.7.7.",
"7.7.7.7.7.7.7.7.7.7.7.7.7.7.7.7.7.7.7.7.7.7.7.7.7.7.7.7.7.7.7.7."
};
